<svg xmlns="http://www.w3.org/2000/svg" width="430.7" height="175" viewBox="-3697.2 2526.9 430.7 175" enable-background="new -3697.2 2526.9 430.7 175"><g fill="#FFD700"><path d="M-3587.3 2613.9c-1-.1-1.7-.6-2.2-1.6-.4-.8-.4-1.3-.4-4.7v-36.7h5.9v-3.8h-5.9v-15.6h-3.8c-3.8 4.1-6.7 6.8-9.3 8.7-2.8 2.1-8.2 5.1-12.1 6.9v3.8h3.4v36.7c0 8.9 5.9 15.2 14.3 15.2 5.7 0 11-2.2 16-6.7l-1.2-3.2c-2.7.9-3.6 1.1-4.7 1zM-3533.5 2575.8c0-5.8-3.8-10.2-8.9-10.2-2.9 0-5.3 1-7.5 2.9-.7.6-1.2 1.2-3.3 3.3v-6.2h-3.5c-4.9 2.2-7.1 3.2-10.1 4.1-5.7 1.8-8.8 2.7-12.5 3.1v3.6c3.8 0 4.3.5 4.3 4v30.2c0 5.5-.6 6.5-4.2 7v3.6H-3547.6v-3.6c-5.1-.3-5.7-1.2-5.7-7.2v-25.5c0-5.5.4-6.8 2.2-6.8 1.1 0 1.7.6 2.7 2.5 1.6 3.1 3.3 4.2 6.3 4.5 5 .4 8.6-3.6 8.6-9.3zM-3484.8 2612.2c-1.7-.2-2-1.1-2-6.3v-26.7c0-4.7-1.2-7.4-4.1-9.9-3.3-2.8-7.1-3.7-14-3.7-7.3 0-13 1.6-18.7 5.2-5.9 3.8-8.9 8.3-8.6 13.1.3 4.5 3.6 7.2 8.2 6.9 4.3-.3 7.8-3.6 8.2-7.7.1-1 0-2-.4-3-1.3-4.1-1.3-3.8-1.2-5.2.1-2.2 1.9-3.9 4.2-3.9 3.1 0 4.7 2.4 4.7 7.1v9.2c-4.6 2-9.5 4.6-14.2 7.2-10.4 6.2-13.7 10-13.7 16.5 0 6.9 5.9 11.7 14.6 11.7 5.4 0 9.2-1.7 14.1-6.4 3.1 4.6 6.9 6.6 11.6 6.4 4.8-.2 9.2-2.5 14.1-7.4l-1.1-3.3c-.6.2-1.3.3-1.7.2zm-23.5-5.2c0 2.3-.2 3.9-.7 4.7-.8 1.5-2.5 2.4-4.2 2.4-3.5 0-5.8-2.8-5.8-7.1 0-6.8 3.2-11 10.8-14.6v14.6h-.1zM-3417.8 2617.7c-3.6-.5-4.2-1.6-4.2-7v-28.5c0-5.2-1.7-9.6-4.7-12.3-2.9-2.5-7.6-4.2-11.9-4.2-6.1 0-10.6 1.7-16.3 6.3v-6.3h-3.5c-4.9 2.2-7.1 3.2-10.1 4.1-5.7 1.8-8.8 2.7-12.5 3.1v3.6c1.8 0 2.4.1 3 .4.6.3 1.4 1.3 1.4 1.9v31.9c0 5.5-.6 6.5-4.2 7v3.6H-3450.7v-3.6c-3.6-.5-4.2-1.6-4.2-7v-31.9c2.9-2.4 4.3-3.2 6.2-3.2 3.4 0 5 2.8 5 8.7v26.4c0 5.5-.6 6.5-4.2 7v3.6H-3417.8v-3.6zM-3378.9 2614.5h-13.6c-3.4 0-5.2-.8-5.2-2.5 0-1.4 1.3-2.1 3.8-2.3 9.9-1 12.3-1.4 15.1-2.7 8-3.7 12.6-11.3 12.6-20.5 0-5.4-2.9-11.3-7.2-15.2-4-3.5-8.4-5.2-15.2-5.6.5-2.9 1.6-4.1 3.3-4.1 1 0 2 .3 3 .8 7.5 3.8 6.9 3.6 9.8 3.6 3.5 0 6.6-3.4 6.3-7-.3-4.6-4.6-8-9.9-8-4.6 0-9.4 2.3-12.3 5.9-1.6 2.1-2.5 4-4 8.6-13.9.1-23.8 9.3-23.8 22.1 0 8.1 3.7 13.4 13.9 19.7-3.5 1-5.1 1.5-6.5 2-4.9 2.2-7.3 5.4-7.3 9.8 0 4 1.6 6.3 6.4 9.1-6 1.2-8.5 3.4-8.5 7.5 0 6.9 9.4 11 25.3 11 17.9 0 28.1-7.1 28.1-19.6 0-3.4-1.6-7-4.3-9.5-2.3-1.9-5.8-3.1-9.8-3.1zm-17.6-38.2c.7-4.1 2.5-6.2 5.3-6.2 2.3 0 3.9 1.4 4.9 4.1.8 2.4 1.1 5.5 1.1 13.4 0 1.3-.1 4.2-.1 6.1-.1 3.2-.2 4-.4 5.2-.7 4-2.5 6.2-5.4 6.2-2.2 0-3.8-1.4-4.8-4.1-.7-2.1-1.1-5.9-1.1-13.4 0-5.2.2-9.5.5-11.3zm3.8 66.4c-11.3 0-16.6-2.3-16.6-7.2 0-3.3 2.9-5.1 7.7-5l17.5.4c4.3.1 6.2 1.4 6.2 4.3-.1 4.8-5.6 7.5-14.8 7.5zM-3314.3 2602.2c-5.8 4.9-10.1 6.8-14.8 6.8-8.5 0-12.9-5.7-13.5-17.5h30.6c-.3-5.6-1.2-9-3.1-12.9-4.5-8.7-12-12.9-22.8-12.9-7.1 0-14.1 2.9-19.1 8-5.6 5.7-8.3 13-8.3 22.6 0 15.5 11.1 26.6 26.6 26.6 6.6 0 13-2.3 17.8-6.4 3.3-2.9 5.4-5.7 8.8-11.7l-2.2-2.6zm-27.9-24.4c.7-5.2 2.3-7.8 4.6-7.8 1.8 0 3.4 2 4 5.2.7 3.4 1.1 7.5.8 10.5 0 .3-.1.7-.1 1.4h-9.9c.1-4.2.4-7.1.6-9.3zM-3275.4 2565.6c-2.9 0-5.3 1-7.5 2.9-.7.6-1.2 1.2-3.3 3.3v-6.2h-3.5c-4.9 2.2-7.1 3.2-10.1 4.1-5.7 1.8-8.8 2.7-12.5 3.1v3.6c3.8 0 4.3.5 4.3 4v30.2c0 5.5-.6 6.5-4.2 7v3.6H-3280.6v-3.6c-5.1-.3-5.7-1.2-5.7-7.2v-25.5c0-5.5.4-6.8 2.2-6.8 1.1 0 1.7.6 2.7 2.5 1.6 3.1 3.3 4.2 6.3 4.5 5 .3 8.6-3.6 8.6-9.3 0-5.8-3.8-10.2-8.9-10.2zM-3628.9 2569.4c-3-3-7-5.7-20.2-13.5-8-4.9-11.4-9.5-10.7-14.9.5-4.2 4.5-7.3 9.2-7.3 8 0 14.6 7.9 20.2 24.6h5.2l-1.4-29.6h-3.8c-1.3 1.8-2 2.2-4.1 2-1.9-.1-3.7-.5-7.7-1.5-6.8-1.9-9.2-2.3-13.8-2.3-17.1 0-29.5 12.2-29.5 28.7 0 11.1 5.6 20.3 16.7 27.3l3.8 2.4 4 2.4 3.8 2.5c2.6 1.5 5 3.3 7.3 5.2 4.2 3.5 10.1 10.3 9.7 20.5-.9 22.2-24.1 30.5-38.3 21.4-13.6-8.5-12.7-28-.5-35 9-5.8 23.9-3 24.3 11.5 0 0-1.7-4.4-3.9-6.1-2.1-2.1-8.7-6.3-16.4-1.7-5.3 3.1-7.5 9.8-5.7 15.6 1.7 4.8 5.1 7.6 9.7 9.1 5.9 1.3 9.6.6 13.9-2 8.5-5.4 8.6-17.2 4-25.3-5.3-9.2-16.9-13.8-29.1-8.6-15 6-23.3 30.7-2.9 45.1 16.2 12.9 56.1 9.3 66.5-23.6 1.3-4.8 3.5-12.8 2-23.3-1.4-10.3-5.9-17.8-12.3-23.6z"/></g><g fill="#224A5A"><path d="M-3612.5 2663.2h3.1v11.1h6.9v2.8h-10v-13.9zM-3598.6 2663.2h10.5v2.7h-7.4v2.8h6.5v2.7h-6.5v2.9h7.5v2.7h-10.6v-13.8zM-3580.6 2666h-4.2v-2.8h11.5v2.8h-4.2v11.1h-3.1V2666zM-3570 2668.3c1.4-.1 2-.8 1.9-2h-1.2v-3.2h3.2v2.7c0 2.6-1.3 3.7-3.7 3.7l-.2-1.2zM-3563.5 2675l1.8-2.2c1.2 1 2.6 1.7 4.1 1.7 1.2 0 2-.5 2-1.3s-.5-1.2-2.8-1.8c-2.8-.7-4.6-1.5-4.6-4.2 0-2.5 2-4.2 4.9-4.2 2 0 3.7.6 5.1 1.8l-1.6 2.3c-1.2-.9-2.4-1.4-3.6-1.4s-1.8.5-1.8 1.2c0 .9.6 1.2 3 1.8 2.8.7 4.4 1.7 4.4 4.2 0 2.8-2.1 4.3-5.1 4.3-2 .1-4.1-.7-5.8-2.2zM-3537.9 2666h-4.2v-2.8h11.5v2.8h-4.2v11.1h-3.1V2666zM-3523.7 2663.1h2.8l5.9 14h-3.2l-1.3-3.1h-5.9l-1.3 3.1h-3.1l6.1-14zm3.2 8.2l-1.8-4.5-1.8 4.5h3.6zM-3511.2 2663.2h3.1v11.1h6.9v2.8h-10v-13.9zM-3497.4 2663.2h3.1v6.1l5.6-6.1h3.7l-5.6 5.9 5.9 8h-3.7l-4.3-5.9-1.6 1.7v4.2h-3.1v-13.9zM-3474.2 2663.2h6.4c1.6 0 2.8.4 3.6 1.2.6.6 1 1.4 1 2.4 0 1.6-.8 2.4-1.8 3 1.6.6 2.6 1.5 2.6 3.4 0 2.5-2.1 3.8-5.2 3.8h-6.6v-13.8zm8 4.1c0-.9-.7-1.4-2-1.4h-3v2.9h2.8c1.3 0 2.2-.4 2.2-1.5zm-1.5 4h-3.5v3h3.6c1.3 0 2.2-.5 2.2-1.5-.1-.9-.8-1.5-2.3-1.5zM-3458.5 2671.1v-7.9h3v7.8c0 2.3 1.1 3.4 3 3.4s3-1.1 3-3.3v-7.9h3v7.8c0 4.2-2.4 6.3-6.1 6.3s-5.9-2.1-5.9-6.2zM-3442.7 2675l1.8-2.2c1.2 1 2.6 1.7 4.1 1.7 1.2 0 2-.5 2-1.3s-.5-1.2-2.8-1.8c-2.8-.7-4.6-1.5-4.6-4.2 0-2.5 2-4.2 4.9-4.2 2 0 3.7.6 5.1 1.8l-1.6 2.3c-1.2-.9-2.4-1.4-3.6-1.4-1.2 0-1.8.5-1.8 1.2 0 .9.6 1.2 3 1.8 2.8.7 4.4 1.7 4.4 4.2 0 2.8-2.1 4.3-5.1 4.3-2 .1-4.2-.7-5.8-2.2zM-3427.4 2663.2h3v13.9h-3v-13.9zM-3419.3 2663.2h2.8l6.5 8.5v-8.5h3v13.9h-2.6l-6.7-8.8v8.8h-3v-13.9zM-3402 2663.2h10.5v2.7h-7.4v2.8h6.5v2.7h-6.5v2.9h7.5v2.7h-10.6v-13.8zM-3388.1 2675l1.8-2.2c1.2 1 2.6 1.7 4.1 1.7 1.2 0 2-.5 2-1.3s-.5-1.2-2.8-1.8c-2.8-.7-4.6-1.5-4.6-4.2 0-2.5 2-4.2 4.9-4.2 2 0 3.7.6 5.1 1.8l-1.6 2.3c-1.2-.9-2.4-1.4-3.6-1.4-1.2 0-1.8.5-1.8 1.2 0 .9.6 1.2 3 1.8 2.8.7 4.4 1.7 4.4 4.2 0 2.8-2.1 4.3-5.1 4.3-2 .1-4.2-.7-5.8-2.2zM-3374.1 2675l1.8-2.2c1.2 1 2.6 1.7 4.1 1.7 1.2 0 2-.5 2-1.3s-.5-1.2-2.8-1.8c-2.8-.7-4.6-1.5-4.6-4.2 0-2.5 2-4.2 4.9-4.2 2 0 3.7.6 5.1 1.8l-1.6 2.3c-1.2-.9-2.4-1.4-3.6-1.4-1.2 0-1.8.5-1.8 1.2 0 .9.6 1.2 3 1.8 2.8.7 4.4 1.7 4.4 4.2 0 2.8-2.1 4.3-5.1 4.3-2 .1-4.1-.7-5.8-2.2z"/></g><g fill="#224A5A"><path d="M-3578.2 2686.4h1.5v1.5h-1.5v-1.5zm.1 3.5h1.4v9.1h-1.4v-9.1zM-3573.6 2689.9h1.4v1.6c.6-1 1.5-1.8 3.1-1.8 2.2 0 3.5 1.5 3.5 3.6v5.7h-1.4v-5.3c0-1.7-.9-2.7-2.5-2.7s-2.7 1.1-2.7 2.9v5.2h-1.4v-9.2zM-3562.3 2691.1h-1.2v-1.2h1.2v-.8c0-1 .3-1.8.8-2.3s1.1-.7 2-.7c.6 0 1.1.1 1.5.2v1.2c-.5-.1-.9-.2-1.3-.2-1.1 0-1.6.6-1.6 1.9v.7h2.9v1.2h-2.9v7.9h-1.4v-7.9zM-3557.1 2694.5c0-2.6 2-4.8 4.8-4.8 2.7 0 4.7 2.1 4.7 4.7s-2 4.8-4.8 4.8c-2.7 0-4.7-2.1-4.7-4.7zm8.1 0c0-2-1.5-3.6-3.4-3.6-2 0-3.3 1.6-3.3 3.5 0 2 1.4 3.5 3.4 3.5 2 .1 3.3-1.5 3.3-3.4zM-3545.8 2694.5c0-4 3.2-7.3 7.3-7.3s7.3 3.1 7.3 6.6c0 2.8-1.6 4.1-3.1 4.1-1.2 0-2-.6-2.3-1.4-.6.8-1.5 1.4-2.7 1.4-1.6 0-3-1.2-3-3 0-2.4 2-4.1 3.8-4.1 1.3 0 2 .7 2.4 1.4l.2-1.1 1.1.1-.7 3.8c-.1.5-.1.8-.1 1 0 .8.5 1.3 1.4 1.3 1.2 0 2.3-1.1 2.3-3.4 0-3.1-2.8-6-6.7-6-3.8 0-6.7 3-6.7 6.7s2.8 6.7 6.8 6.7c1.7 0 2.9-.4 4.1-1.1l.3.4c-1.3.8-2.7 1.2-4.4 1.2-4.1-.1-7.3-3.3-7.3-7.3zm8.4 1.5c.6-.6.9-1.4.9-2.2 0-1.2-.9-2.1-2-2.1-.7 0-1.3.3-1.8.8s-.9 1.3-.9 2.2c0 1.3.8 2.1 2 2.1.7 0 1.4-.3 1.8-.8zM-3529.6 2697.9l.7-1c1 .7 2.1 1.2 3.2 1.2s1.9-.6 1.9-1.4c0-.9-1.1-1.3-2.3-1.6-1.4-.4-3-.9-3-2.6 0-1.6 1.3-2.6 3.1-2.6 1.1 0 2.3.4 3.3 1l-.6 1c-.8-.5-1.8-.9-2.7-.9-1.1 0-1.8.6-1.8 1.3 0 .9 1.1 1.2 2.3 1.6 1.4.4 2.9 1 2.9 2.6 0 1.7-1.4 2.7-3.2 2.7-1.3 0-2.8-.5-3.8-1.3zM-3519.8 2696.6v-5.5h-1.3v-1.2h1.3v-2.7h1.4v2.7h2.9v1.2h-2.9v5.3c0 1.1.6 1.5 1.5 1.5.5 0 .8-.1 1.3-.3v1.2c-.5.2-1 .4-1.6.4-1.4 0-2.6-.7-2.6-2.6zM-3513.1 2689.9h1.4v2.4c.7-1.5 2-2.6 3.7-2.5v1.5h-.1c-2 0-3.6 1.4-3.6 4.2v3.6h-1.4v-9.2zM-3507.1 2696.4c0-2 1.6-3 3.9-3 1.2 0 2 .2 2.8.4v-.3c0-1.6-1-2.5-2.7-2.5-1.1 0-1.9.3-2.8.7l-.4-1.1c1-.5 2-.8 3.3-.8s2.3.3 2.9 1c.6.6.9 1.5.9 2.7v5.6h-1.3v-1.4c-.6.8-1.7 1.6-3.3 1.6-1.6-.1-3.3-1-3.3-2.9zm6.7-.7v-.9c-.7-.2-1.6-.4-2.7-.4-1.7 0-2.7.7-2.7 1.9 0 1.1 1.1 1.8 2.3 1.8 1.7.1 3.1-1 3.1-2.4zM-3496.2 2689.9h1.4v1.6c.6-1 1.6-1.8 3.1-1.8 2.2 0 3.5 1.5 3.5 3.6v5.7h-1.4v-5.3c0-1.7-.9-2.7-2.5-2.7s-2.7 1.1-2.7 2.9v5.2h-1.4v-9.2zM-3485.5 2700.6l.6-1.1c1 .8 2.2 1.2 3.5 1.2 2 0 3.3-1.1 3.3-3.2v-1.1c-.8 1.1-1.9 1.9-3.6 1.9-2.2 0-4.3-1.6-4.3-4.3 0-2.7 2.1-4.3 4.3-4.3 1.7 0 2.8.8 3.6 1.8v-1.6h1.4v7.5c0 1.4-.4 2.5-1.2 3.2-.8.8-2 1.2-3.5 1.2-1.5.1-2.9-.3-4.1-1.2zm7.5-6.5c0-1.9-1.6-3.1-3.3-3.1s-3.2 1.2-3.2 3.1c0 1.8 1.5 3.1 3.2 3.1 1.7-.1 3.3-1.3 3.3-3.1zM-3474.3 2694.5c0-2.7 1.8-4.8 4.4-4.8 2.7 0 4.2 2.1 4.2 4.8v.4h-7.2c.2 2 1.6 3.1 3.2 3.1 1.2 0 2.1-.5 2.9-1.3l.8.8c-.9 1-2 1.7-3.8 1.7-2.4 0-4.5-1.9-4.5-4.7zm7.3-.5c-.1-1.7-1.1-3.1-2.9-3.1-1.6 0-2.8 1.3-3 3.1h5.9zM-3463.3 2689.9h1.4v2.4c.7-1.5 2-2.6 3.7-2.5v1.5h-.1c-2 0-3.6 1.4-3.6 4.2v3.6h-1.4v-9.2zM-3456.1 2689.9h1.4v1.6c.6-1 1.5-1.8 3.1-1.8 2.2 0 3.5 1.5 3.5 3.6v5.7h-1.4v-5.3c0-1.7-.9-2.7-2.5-2.7s-2.7 1.1-2.7 2.9v5.2h-1.4v-9.2zM-3438.7 2689.9h1.4l-3.8 9.4c-.8 1.9-1.7 2.6-3 2.6-.8 0-1.3-.2-1.9-.5l.5-1.1c.4.2.8.3 1.4.3.8 0 1.3-.4 1.9-1.7l-4.1-9.1h1.5l3.3 7.6 2.8-7.5zM-3436.8 2697.2h1.6v1.8h-1.6v-1.8zM-3433.2 2694.5c0-2.6 2-4.8 4.7-4.8 1.7 0 2.8.7 3.6 1.6l-.9 1c-.7-.8-1.5-1.4-2.8-1.4-1.8 0-3.3 1.6-3.3 3.5 0 2 1.4 3.5 3.3 3.5 1.2 0 2.1-.6 2.8-1.4l.9.8c-.9 1-2 1.8-3.7 1.8-2.6.1-4.6-2-4.6-4.6zM-3423.5 2694.5c0-2.6 2-4.8 4.8-4.8 2.7 0 4.7 2.1 4.7 4.7s-2 4.8-4.8 4.8c-2.7 0-4.7-2.1-4.7-4.7zm8.1 0c0-2-1.5-3.6-3.4-3.6-2 0-3.3 1.6-3.3 3.5 0 2 1.4 3.5 3.4 3.5 2 .1 3.3-1.5 3.3-3.4zM-3411.5 2689.9h1.4v1.5c.6-.9 1.4-1.7 2.9-1.7s2.4.8 2.9 1.8c.7-1 1.6-1.8 3.2-1.8 2.1 0 3.4 1.4 3.4 3.7v5.6h-1.4v-5.3c0-1.8-.9-2.7-2.4-2.7-1.4 0-2.5 1-2.5 2.8v5.2h-1.4v-5.4c0-1.7-.9-2.7-2.3-2.7s-2.5 1.2-2.5 2.9v5.2h-1.4v-9.1h.1z"/></g></svg>