<svg xmlns="http://www.w3.org/2000/svg" width="350.5" height="122" viewBox="-2784 2092.7 350.5 122" enable-background="new -2784 2092.7 350.5 122"><path fill="#000000" d="M-2696.1 2156.3c-.8-.1-1.4-.5-1.8-1.3-.3-.7-.3-1-.3-3.8v-30.1h4.9v-3.1h-4.9v-12.8h-3.1c-3.1 3.4-5.5 5.6-7.6 7.1-2.3 1.7-6.7 4.2-9.9 5.6v3.1h2.8v30.1c0 7.3 4.9 12.4 11.7 12.4 4.7 0 9-1.8 13.1-5.5l-1-2.6c-2.2.8-3 1-3.9.9zm44.1-31.2c0-4.8-3.1-8.3-7.3-8.3-2.3 0-4.3.8-6.2 2.3-.6.5-1 1-2.7 2.7v-5h-2.8c-4 1.8-5.8 2.6-8.3 3.4-4.7 1.5-7.2 2.2-10.3 2.5v3c3.1 0 3.6.4 3.6 3.3v24.7c0 4.5-.5 5.3-3.5 5.7v3h26v-3c-4.2-.3-4.7-1-4.7-5.9v-20.9c0-4.5.3-5.6 1.8-5.6.9 0 1.4.5 2.2 2.1 1.3 2.5 2.7 3.5 5.1 3.7 4.2.2 7.1-3 7.1-7.7zm39.9 29.8c-1.4-.2-1.7-.9-1.7-5.1v-21.9c0-3.8-1-6.1-3.4-8.1-2.7-2.3-5.8-3-11.5-3-6 0-10.7 1.3-15.3 4.3-4.9 3.1-7.3 6.8-7 10.8.3 3.7 3 5.9 6.7 5.6 3.6-.3 6.4-3 6.7-6.3.1-.8 0-1.7-.3-2.4-1-3.4-1-3.1-1-4.3.1-1.8 1.6-3.2 3.5-3.2 2.5 0 3.8 2 3.8 5.8v7.6c-3.7 1.7-7.8 3.7-11.6 5.9-8.5 5-11.2 8.2-11.2 13.6 0 5.6 4.9 9.6 12 9.6 4.4 0 7.6-1.4 11.6-5.2 2.5 3.7 5.6 5.4 9.5 5.2 3.9-.2 7.6-2.1 11.6-6.1l-.9-2.7c-.6-.1-1.1 0-1.5-.1zm-19.3-4.3c0 1.9-.2 3.2-.6 3.8-.7 1.2-2.1 2-3.5 2-2.9 0-4.8-2.3-4.8-5.8 0-5.6 2.6-9 8.9-12v12zm74.2 8.8c-3-.4-3.5-1.3-3.5-5.7v-23.4c0-4.3-1.4-7.9-3.8-10.1-2.3-2.1-6.3-3.5-9.7-3.5-5 0-8.7 1.4-13.4 5.1v-5.1h-2.9c-4 1.8-5.8 2.6-8.3 3.4-4.7 1.5-7.2 2.2-10.3 2.5v3c1.5 0 2 .1 2.4.3.5.3 1.1 1 1.1 1.6v26.2c0 4.5-.5 5.3-3.5 5.7v3h24.8v-3c-3-.4-3.5-1.3-3.5-5.7v-26.2c2.3-2 3.6-2.6 5-2.6 2.8 0 4.1 2.3 4.1 7.1v21.7c0 4.5-.5 5.3-3.5 5.7v3h24.8v-3h.2zm31.9-2.6h-11.1c-2.8 0-4.3-.7-4.3-2.1 0-1.1 1-1.7 3.1-1.9 8.1-.8 10.1-1.1 12.3-2.2 6.5-3 10.3-9.3 10.3-16.8 0-4.4-2.3-9.3-5.9-12.4-3.3-2.9-6.9-4.3-12.4-4.6.4-2.3 1.3-3.4 2.7-3.4.8 0 1.7.3 2.4.7 6.2 3.1 5.6 3 8 3 2.9 0 5.4-2.8 5.1-5.7-.3-3.7-3.7-6.5-8.1-6.5-3.7 0-7.7 1.9-10.1 4.9-1.3 1.7-2.1 3.3-3.3 7-11.4.1-19.5 7.6-19.5 18.1 0 6.6 3 10.9 11.4 16.2-2.9.8-4.2 1.2-5.3 1.7-4 1.8-6 4.4-6 8 0 3.3 1.3 5.1 5.2 7.5-5 1-7 2.8-7 6.2 0 5.6 7.7 9 20.8 9 14.7 0 23-5.8 23-16.1 0-2.8-1.3-5.7-3.6-7.8-1.6-1.9-4.4-2.8-7.7-2.8zm-14.5-31.3c.6-3.4 2.1-5 4.3-5 1.9 0 3.2 1.1 4 3.4.7 2 .9 4.5.9 10.9 0 1-.1 3.5-.1 5-.1 2.6-.2 3.3-.3 4.3-.6 3.3-2.1 5-4.4 5-1.8 0-3.1-1.1-3.9-3.4-.6-1.7-.9-4.9-.9-10.9 0-4.3.2-7.8.4-9.3zm3.2 54.4c-9.3 0-13.6-1.9-13.6-5.9 0-2.7 2.3-4.2 6.3-4.1l14.3.3c3.6.1 5 1.1 5 3.6 0 3.8-4.5 6.1-12 6.1zm64.2-33.2c-4.8 4-8.3 5.6-12.2 5.6-7 0-10.6-4.7-11-14.3h25.1c-.3-4.6-1-7.4-2.5-10.6-3.7-7.1-9.8-10.6-18.7-10.6-5.8 0-11.6 2.3-15.6 6.5-4.6 4.7-6.8 10.7-6.8 18.5 0 12.7 9.1 21.8 21.8 21.8 5.4 0 10.7-1.9 14.6-5.2 2.7-2.3 4.4-4.7 7.2-9.6l-1.9-2.1zm-22.9-20c.6-4.3 1.9-6.4 3.7-6.4 1.5 0 2.8 1.7 3.3 4.3.6 2.8.9 6.2.7 8.6 0 .3-.1.6-.1 1.1h-8.1c.2-3.4.3-5.8.5-7.6zm54.7-10c-2.3 0-4.3.8-6.2 2.3-.6.5-1 1-2.7 2.7v-5h-2.9c-4 1.8-5.8 2.6-8.3 3.4-4.7 1.5-7.2 2.2-10.3 2.5v3c3.1 0 3.6.4 3.6 3.3v24.8c0 4.5-.5 5.3-3.5 5.7v3h26v-3c-4.2-.3-4.7-1-4.7-5.9v-20.9c0-4.5.3-5.6 1.8-5.6.9 0 1.4.5 2.2 2.1 1.3 2.5 2.7 3.5 5.1 3.7 4.1.3 7-3 7-7.6.2-4.9-2.9-8.5-7.1-8.5zm-288.6 9.6c-2.9-2.7-4.2-3.5-15.9-10.7-6.3-3.9-8.9-7.5-8.4-11.8.4-3.3 3.5-5.8 7.2-5.8 6.3 0 11.4 6.2 15.9 19.3h4.1l-1.1-23.2h-3c-1 1.4-1.6 1.7-3.2 1.6-1.5-.1-2.9-.4-6-1.2-5.3-1.5-7.2-1.8-10.9-1.8-13.4 0-23.1 9.6-23.1 22.6 0 8.8 4.4 15.9 13.2 21.5l3 1.9 3.1 1.9 3 2c2 1.2 3.9 2.6 5.7 4.1 3.3 2.8 7.6 8.1 7.6 16.1-1 17.7-18.9 24.6-30.6 16.9-11.8-7.7-11.4-25.9-.8-31.7 9.1-4.7 15.8-1.4 17.5 2.6 0 0 0 .1.1.1-1.7-1.1-3.7-1.7-5.8-1.7-5.6 0-10.2 4.2-10.8 9.6v.1c-.4 2 0 4.1 1.1 5.9 1.2 2.4 3.3 4.4 5.9 5.3 3.1 1.3 6.8 1.3 11.1-1 6.2-4.2 7.8-12.6 3.5-18.7-5.3-7.7-14.1-10-23.7-6.3-12.4 4.9-17.8 18.9-9.6 31.9 12.3 19.6 52.1 11.8 58.5-13 1-3.8 2.3-9.6 1.2-17.8-1.2-8.3-4.4-14.4-8.8-18.7zM-2678.7 2207.7c-.5-.7-1.4-1.1-2.3-1.1-1.6 0-2.7 1.2-2.7 2.8 0 1.6 1.1 2.7 2.7 2.7.8 0 1.7-.4 2.2-1.1v3.1c-.9.3-1.5.5-2.3.5-1.4 0-2.7-.5-3.8-1.5s-1.6-2.3-1.6-3.8c0-1.4.5-2.7 1.5-3.7s2.4-1.6 3.8-1.6c.8 0 1.6.2 2.4.5v3.2h.1zm17 1.4c0 3.2-2.3 5.5-5.5 5.5s-5.5-2.3-5.5-5.5c0-3 2.7-5.1 5.5-5.1s5.5 2.1 5.5 5.1zm-8.4 0c0 1.7 1.3 3 2.8 3s2.8-1.3 2.8-3c0-1.4-1.3-2.6-2.8-2.6s-2.8 1.2-2.8 2.6zm15.4-4.8h2.6l2 5.3 2.1-5.3h2.6l1.5 10h-2.6l-.7-5.8-2.4 5.8h-1l-2.3-5.8-.8 5.8h-2.6l1.6-10zm19.3 10h-2.6v-10h2.6v10zm6.5-10h2.6l4.8 6.1v-6.1h2.6v10h-2.6l-4.8-6.1v6.1h-2.6v-10zm26.4 4.4c0 1.5-.1 2.7-1 4-1 1.4-2.5 2-4.1 2-3.1 0-5.3-2.1-5.3-5.3 0-3.2 2.2-5.4 5.4-5.4 2.1 0 3.6.9 4.5 2.8l-2.5 1c-.4-1-1.1-1.6-2.2-1.6-1.7 0-2.6 1.6-2.6 3.2s.9 3.1 2.6 3.1c1.1 0 2-.6 2.1-1.7h-2.1v-2l5.2-.1zm20.8-1.8c-.5-.4-1.1-.7-1.7-.7-.5 0-1.1.3-1.1.8 0 .6.7.8 1.2 1l.7.2c1.4.4 2.5 1.1 2.5 2.7 0 1-.2 2-1 2.7-.8.7-1.8.9-2.8.9-1.3 0-2.5-.4-3.5-1.1l1.1-2.1c.6.6 1.4 1 2.3 1 .6 0 1.3-.3 1.3-1s-1-1-1.6-1.1c-1.6-.5-2.7-.9-2.7-2.8 0-2 1.4-3.4 3.4-3.4 1 0 2.2.3 3.1.8l-1.2 2.1zm18 2.2c0 3.2-2.3 5.5-5.5 5.5s-5.5-2.3-5.5-5.5c0-3 2.7-5.1 5.5-5.1s5.5 2.1 5.5 5.1zm-8.3 0c0 1.7 1.3 3 2.8 3s2.8-1.3 2.8-3c0-1.4-1.3-2.6-2.8-2.6s-2.8 1.2-2.8 2.6zm24.9 0c0 3.2-2.3 5.5-5.5 5.5s-5.5-2.3-5.5-5.5c0-3 2.7-5.1 5.5-5.1s5.5 2.1 5.5 5.1zm-8.4 0c0 1.7 1.3 3 2.8 3s2.8-1.3 2.8-3c0-1.4-1.3-2.6-2.8-2.6s-2.8 1.2-2.8 2.6zm14.3-4.8h2.6l4.8 6.1v-6.1h2.6v10h-2.6l-4.8-6.1v6.1h-2.6v-10z"/></svg>